#!OML:ASF E:/inclinewalkrobotboard/Project1/Captureday1/Session1/subject1.ASF
:FULLY-SPECIFIED
:DEGREES
26
root 0 0 0 -1.1568382273401334 -2.8475779746840217 -0.8712186604799897
lowerback 10.950052950557781 0.5618994005181717 0.4685393387538655
upperback -1.1187767115908618 0.8803290162379476 0.910715545234595
thorax -7.300269543565798 0.4051132547667736 0.44652567408843424
lowerneck -13.387769757209481 -1.403147114912971 0.22485043410241118
upperneck 19.04491420716138 -1.4002301465851743 -2.3631932047407895
head 8.20906830339935 -0.8067456018443014 -1.0089642265543064
rclavicle -4.583824770846211E-16 -2.4894435110188117E-16
rhumerus -11.444694569448256 -6.5558467454385525 -67.06938656776009
rradius 43.263900883297374
rwrist 12.172906677189143
rhand -23.713013388279556 -6.0744237188785775
rfingers 7.1250200000001325
rthumb 2.9893628071790967 -36.23139541000503
lclavicle -9.336013275200564E-16 -8.227980536344222E-16
lhumerus -10.935066314409095 -4.46346898802119 67.66216358855613
lradius 44.836049997338826
lwrist -5.8773808252155
lhand -33.81601971166173 -13.420871830883682
lfingers 7.125020000000124
lthumb -7.088103481206312 15.674808878947735
rfemur -22.039076253819537 5.779206734307966 23.510670294186554
rtibia 27.945247391685367
rfoot -8.29201476420014 -8.985208959087133
rtoes 0.8426224042349937
lfemur 17.984453835046644 -2.1576792108123413 -29.799749068770733
ltibia 32.77569068630136
lfoot -6.715290011168752 -10.949667558155836
ltoes -7.754552670094227
27
root 0 0 0 -1.1681780072406456 -2.8446491111852508 -0.8835332497019008
lowerback 10.94575468593847 0.5606981040801686 0.4729383531994275
upperback -1.1042881215003324 0.8796687223355262 0.9171659608481828
thorax -7.281337888666523 0.4045257353274802 0.4518219459143288
lowerneck -13.42037105665404 -1.4170069511520227 0.20590378691117545
upperneck 19.046279585882544 -1.4210211334325802 -2.335951285825559
head 8.214920375239204 -0.815733060115408 -0.9988538278510366
rclavicle -4.593780440216158E-16 -2.4023284080990825E-16
rhumerus -11.615387932665678 -6.668922860235291 -67.17552612052344
rradius 43.100457882278334
rwrist 12.091414343083532
rhand -23.655387878926625 -5.792996174816981
rfingers 7.125020000000133
rthumb 3.047930811287787 -35.95372679980435
lclavicle -9.428732884925737E-16 -8.196407448025047E-16
lhumerus -11.283096242486653 -4.379116100784713 67.91188248277088
lradius 44.558405847695894
lwrist -5.686749791964557
lhand -33.6959511707179 -12.782529551164583
lfingers 7.1250200000001245
lthumb -6.973359345187255 16.309971006165323
rfemur -13.720442244945385 7.462995039053958 27.357524880891916
rtibia 21.675791907528055
rfoot -12.233495319416855 -8.044186454274247
rtoes 0.9243114056179318
lfemur 15.471887312476495 -1.7271639107694514 -28.273075365816688
ltibia 36.786158195902935
lfoot -4.2883909014654815 -11.984056560572268
ltoes -7.804018646543664
28
root 0 0 0 -1.1829511183483112 -2.841255642109505 -0.8992097510442121
lowerback 10.940362519970652 0.5593564375462526 0.47952332545127757
upperback -1.0860597133284866 0.8790141651832838 0.9252703439977518
thorax -7.2571069674939075 0.40381320129828735 0.45834287967836795
lowerneck -13.46263225406225 -1.4348675066345922 0.18185252689471232
upperneck 19.048265525692678 -1.4471031739597529 -2.300535106966394
head 8.222411785771603 -0.8271804675289962 -0.985773560940278
rclavicle -4.609583936690556E-16 -2.2843424643844504E-16
rhumerus -11.837829168646195 -6.813895817032314 -67.31472182491974
rradius 42.887410785358036
rwrist 11.98518940625189
rhand -23.580439477509977 -5.424226076010363
rfingers 7.125020000000134
rthumb 3.1248058099285068 -35.58945900283847
lclavicle -9.625087481291368E-16 -8.153226538733466E-16
lhumerus -11.858603857571076 -4.239076412172602 68.32405506370714
lradius 44.09858583572265
lwrist -5.370954852559054
lhand -33.497066557012445 -11.72185370078719
lfingers 7.125020000000127
lthumb -6.783615546777995 17.35623029253979
rfemur 0.03525131777428214 9.14751788657234 33.1344511203832
rtibia 19.033534794199053
rfoot -16.09153134799577 -5.6605718376245155
rtoes 2.6961307819585683
lfemur 6.0495317348530175 -0.5893644941993319 -23.230223192061406
ltibia 47.133454715146414
lfoot 2.103546123054425 -13.812209353010974
ltoes -7.274032958959372
29
root 0 0 0 -1.1852287543710336 -2.841565770222216 -0.9009610419009364
lowerback 10.939909037389727 0.5595276729125485 0.48135300446367046
upperback -1.0846111949489123 0.879312745597757 0.92607547184252
thorax -7.254441021091405 0.4038252385331711 0.4586961124370321
lowerneck -13.46818979751468 -1.4369142463861526 0.1790914623283109
upperneck 19.049391586177094 -1.4489431336812901 -2.295801037634387
head 8.223434080929458 -0.8283059059128488 -0.9841463803924522
rclavicle -4.611858110155825E-16 -2.299452549375484E-16
rhumerus -11.811165256529161 -6.792988348844765 -67.29990362439626
rradius 42.9120819152582
rwrist 11.997998290114982
rhand -23.5895397370446 -5.466533840890187
rfingers 7.125020000000134
rthumb 3.1163486141888797 -35.627812825156056
lclavicle -9.715531371885548E-16 -8.13942751616029E-16
lhumerus -12.06225978420537 -4.188488941791626 68.46987031383381
lradius 43.93623226423565
lwrist -5.260079578972101
lhand -33.426402099079446 -11.342872653558345
lfingers 7.125020000000128
lthumb -6.716241888165766 17.722276400759505
rfemur 6.624126619872211 9.367946161340702 35.618942361822974
rtibia 21.87015980293858
rfoot -16.546977784230982 -4.054627694486959
rtoes 4.376304768148022
lfemur -4.014234398563612 0.429463036861787 -18.487697673782844
ltibia 54.78201460315304
lfoot 6.081486731628688 -13.933070530307488
ltoes -6.513811593865665
30
root 0 0 0 -1.1791370329028665 -2.844557053270174 -0.8934953931412251
lowerback 10.9428108630037 0.5607955564087378 0.48017353928551004
upperback -1.0946025183748098 0.8801366652164686 0.9219757291215194
thorax -7.266442533408897 0.404353897516278 0.45468576903592817
lowerneck -13.449166776714994 -1.428346024504851 0.19071845904621604
upperneck 19.050131741158072 -1.434235799209087 -2.3116198335739178
head 8.220194710728435 -0.8224986881138573 -0.9902571894974146
rclavicle -4.608804909193878E-16 -2.4278007066750793E-16
rhumerus -11.57791748040793 -6.635070552966562 -67.15725550262728
rradius 43.13344717824464
rwrist 12.108108690545254
rhand -23.667940930923972 -5.848727673859724
rfingers 7.1250200000001325
rthumb 3.0374173897770427 -35.997566037974764
lclavicle -9.765916567820075E-16 -8.115721293920927E-16
lhumerus -12.046156728246167 -4.190690200349399 68.45551001936484
lradius 43.95246856790132
lwrist -5.272838281064846
lhand -33.43268913525971 -11.377714374122323
lfingers 7.125020000000128
lthumb -6.7221595918609385 17.679023757835825
rfemur 10.494648385112992 9.182415385338532 36.934882687665265
rtibia 25.643089686997776
rfoot -16.13294326252011 -2.8732867473050856
rtoes 5.705692226926004
lfemur -14.399919684779675 1.16276069362539 -14.173155549597574
ltibia 59.145545118183364
lfoot 7.7635949395235375 -12.400462779401021
ltoes -5.601699888217379
31
root 0 0 0 -1.1661231564675396 -2.8494950986261114 -0.878358414083005
lowerback 10.948518301748248 0.5630042714271065 0.47693683756309724
upperback -1.1138300236995584 0.8814965839818616 0.913735691708001
thorax -7.290542167822669 0.40526059903063094 0.4472003263959422
lowerneck -13.409930010792056 -1.4110399463806846 0.21424480358716186
upperneck 19.050414623085068 -1.406286727381271 -2.344116341655823
head 8.213286147847574 -0.8110864500277928 -1.0026765113099672
rclavicle -4.631838538496287E-16 -2.6400051001121184E-16
rhumerus -11.184547817573808 -6.371713001425702 -66.91540854307148
rradius 43.50612490914969
rwrist 12.29261543535429
rhand -23.799946511577776 -6.491996425942478
rfingers 7.125020000000132
rthumb 2.9043539584994607 -36.62487676407398
lclavicle -9.770855065180274E-16 -8.088559574332462E-16
lhumerus -11.887320554033828 -4.227425760312274 68.33762374787646
lradius 44.083735337298116
lwrist -5.365604691562409
lhand -33.489022171835835 -11.68256923386973
lfingers 7.125020000000127
lthumb -6.775679635677842 17.37236431315953
rfemur 12.551302098515464 8.888941886331915 37.53726010440627
rtibia 28.921906957048407
rfoot -15.505097501734966 -2.108083951198217
rtoes 6.599911838868029
lfemur -23.091622452467575 1.2360594251133161 -11.109083925338144
ltibia 58.62559889330613
lfoot 7.2906321610552265 -9.524915775181176
ltoes -4.279462396820181
32
root 0 0 0 -1.1515012319337705 -2.8546578369465068 -0.8614398658930986
lowerback 10.954825250886978 0.5653876050500785 0.47335669262786356
upperback -1.134815071391664 0.8830667988416632 0.9045132150060181
thorax -7.317133064687567 0.40619825803565696 0.43912763417137535
lowerneck -13.366272076664096 -1.3918231699355206 0.24045012462265275
upperneck 19.050235792540974 -1.3758888752489038 -2.3800661407082027
head 8.205415732320347 -0.7984964276775434 -1.0164140445477654
rclavicle -4.672605916412874E-16 -2.8444367308216936E-16
rhumerus -10.80109546694059 -6.115215723859143 -66.68023355975618
rradius 43.867083404728135
rwrist 12.471570305494716
rhand -23.9281202299181 -7.115136543523583
rfingers 7.12502000000013
rthumb 2.7753657176500077 -37.23534296129619
lclavicle -9.778823177587655E-16 -8.050967616067137E-16
lhumerus -11.740279352946358 -4.261560330274257 68.22944620482752
lradius 44.203766507589016
lwrist -5.451078832820526
lhand -33.54150943336909 -11.967844466760779
lfingers 7.125020000000127
lthumb -6.825217627520287 17.09213146736437
rfemur 13.595530629747014 8.60205214948689 37.77403804099308
rtibia 31.50165937009741
rfoot -14.889901775536885 -1.6202252419298855
rtoes 7.2051366661392136
lfemur -29.730239022872716 0.7048343675955725 -9.220765122281476
ltibia 54.019373252985176
lfoot 5.427191786033793 -5.8413147106353165
ltoes -2.4772082019654746
